<?xml version="1.0" encoding="UTF-8" standalone="no"?>
<!DOCTYPE svg PUBLIC "-//W3C//DTD SVG 1.1//EN" "http://www.w3.org/Graphics/SVG/1.1/DTD/svg11.dtd">
<svg width="100%" height="100%" viewBox="0 0 738 116" version="1.1" xmlns="http://www.w3.org/2000/svg" xmlns:xlink="http://www.w3.org/1999/xlink" xml:space="preserve" xmlns:serif="http://www.serif.com/" style="fill-rule:evenodd;clip-rule:evenodd;stroke-linejoin:round;stroke-miterlimit:2;">
    <g transform="matrix(1.057055,0,0,1.057055,-3.100651,-0.696134)">
        <path d="M346.007,62.019C345.647,62.375 341.935,66.044 341.614,66.575C340.708,68.074 341.321,68.62 346.196,74.734C351.317,81.157 351.19,81.232 356.306,87.651C357.441,89.075 370.143,105.009 370.394,105.537C370.511,105.783 370.11,106.754 369.754,106.89C368.882,107.223 356.71,106.771 342.511,107.034C340.997,107.062 341.019,106.877 339.503,106.935C334.983,107.108 335.33,105.573 329.102,97.813C325.334,93.117 325.383,93.095 321.643,88.388C320.553,87.017 319.759,85.748 316.974,88.931C315.259,90.891 315.425,91.144 315.417,101.5C315.416,103.015 315.716,106.174 314.6,106.675C313.214,107.296 299.52,106.756 289.504,107.031C286.084,107.125 286.306,105.925 286.303,102.499C286.298,95.457 286.235,14.941 286.327,14.469C286.642,12.846 288.295,12.782 288.516,12.773C289.291,12.744 301.188,12.792 312.501,12.754C312.813,12.753 314.139,12.635 314.756,13.19C315.622,13.969 315.435,14.176 315.435,29.5C315.435,52.517 315.457,52.516 315.373,53.505C314.975,58.187 318.122,54.536 318.326,54.317C319.482,53.076 325.211,46.926 333.164,39.167C335.278,37.105 335.599,37.415 343.5,37.416C363.441,37.417 364.478,37.409 365.503,37.356C365.71,37.346 367.713,37.243 368.063,37.801C368.589,38.637 367.669,39.307 362.559,44.558C360.558,46.614 350.613,57.273 347.446,60.446C346.691,61.203 346.736,61.222 346.007,62.019Z" style="fill-opacity:1;"/>
    </g>
    <g transform="matrix(1.057055,0,0,1.057055,-3.100651,-0.696134)">
        <path d="M108.608,36.943C119.371,34.648 128.18,38.269 129.334,38.846C142.683,45.52 144.436,57.578 144.43,68.5C144.412,105.402 144.557,105.492 144.099,106.214C143.554,107.07 140.793,107.035 140.498,107.031C129.476,106.889 129.495,107.08 118.484,106.966C118.294,106.964 115.806,107.22 115.379,105.532C115.183,104.758 115.331,74.956 115.288,71.504C115.113,57.686 103.546,59.182 99.362,64.397C96.154,68.395 96.482,75.853 96.475,77.5C96.398,95.823 96.759,105.245 96.119,106.222C95.563,107.071 92.795,107.035 92.498,107.031C81.467,106.886 81.487,107.164 70.476,106.946C67.727,106.892 67.549,106.261 67.548,103.5C67.549,78.5 67.549,53.5 67.55,28.5C67.55,13.954 67.335,13.406 68.682,12.939C69.58,12.629 94.818,12.714 95.364,12.89C96.694,13.319 96.475,14.332 96.475,26.5C96.475,39.412 96.29,39.403 96.385,40.52C96.396,40.655 96.493,41.797 97.474,41.805C97.811,41.808 98.23,41.506 100.335,40.204C103.865,38.021 106.349,37.573 108.608,36.943Z" style="fill-opacity:1;"/>
    </g>
    <g transform="matrix(1.057055,0,0,1.057055,-3.100651,-0.696134)">
        <path d="M234.388,61.074C233.598,61.35 232.193,61.503 230.337,63.331C226.089,67.517 226.642,72.712 226.642,88.5C226.642,105.65 226.675,105.732 226.248,106.308C225.694,107.055 225.472,106.967 204.5,106.967C199.966,106.967 197.651,107.76 197.521,104.499C197.521,104.48 197.494,40.235 197.541,39.503C197.694,37.073 200.212,37.418 201.5,37.416C203.18,37.414 220.602,37.388 222.502,37.421C226.892,37.498 224.223,41.449 225.551,42.44C226.78,43.357 227.024,41.641 232.301,39.065C241.133,34.751 259.157,33.875 268.708,46.345C275.506,55.22 274.556,68.342 274.556,81.5C274.559,88.5 274.563,95.5 274.566,102.5C274.567,102.802 274.573,105.723 274.186,106.255C273.6,107.062 273.358,106.967 251.5,106.967C247.7,106.967 245.448,107.692 245.358,104.506C245.147,97.005 245.873,71.692 244.856,67.411C242.884,59.113 236.217,60.764 234.388,61.074Z" style="fill-opacity:1;"/>
    </g>
    <g transform="matrix(1.057055,0,0,1.057055,-3.100651,-0.696134)">
        <path d="M701.002,76.457C700.988,76.619 700.937,89.162 690.803,98.826C683.673,105.626 674.58,107.329 670.498,107.365C664.805,107.416 653.475,108.185 643.074,96.876C637.554,90.874 635.506,83.065 635.223,80.538C635.077,79.232 631.583,62.073 644.378,49.378C656.479,37.372 673.928,39.368 681.392,42.741C685.412,44.558 689.086,46.269 693.89,52.193C702.462,62.764 701.01,76.238 701.002,76.457L693.984,70.44C693.111,63.427 691.272,58.611 685.772,53.222C674.918,42.585 660.294,47.12 658.602,47.773C638.34,55.593 637.698,81.686 648.751,93.263C651.811,96.469 655.672,98.475 656.34,98.822C664.896,103.269 678.283,102.284 686.665,93.661C692.257,87.908 693.48,80.777 693.693,79.533C694.466,75.027 694.341,75.012 693.984,70.44L701.002,76.457Z" style="fill:rgb(3,3,3);fill-opacity:0.99;"/>
    </g>
    <g transform="matrix(1.057055,0,0,1.057055,-3.100651,-0.696134)">
        <path d="M37.557,108.015C35.879,107.807 24.391,106.922 18.181,98.73C11.798,90.309 12.757,83.923 12.669,65.5C12.653,62.027 10.769,62.627 7.5,62.597C4.1,62.567 2.86,62.884 2.937,59.496C3.215,47.117 2.737,43.625 3.211,42.356C3.818,40.727 8.03,41.306 10.486,41.234C10.649,41.229 11.871,41.194 12.355,40.413C12.652,39.933 12.675,39.896 12.682,26.501C12.684,23.206 12.222,21.962 15.507,21.933C17.346,21.916 32.561,21.779 38.499,21.926C41.933,22.011 41.796,23.08 41.772,26.502C41.677,39.951 41.687,40.148 42.263,40.735C42.924,41.408 44.189,41.238 44.496,41.234C54.71,41.098 55.112,41.269 55.48,42.507C55.683,43.189 55.757,60.594 55.445,61.478C54.843,63.187 50.93,62.49 44.502,62.606C44.278,62.61 42.251,62.647 41.908,63.656C41.603,64.554 41.772,79.814 41.835,80.476C42.417,86.607 47.567,86.801 51.457,85.379C53.424,84.66 54.187,84.581 55.124,87.616C57.275,94.582 57.542,94.48 59.806,101.402C60.378,103.149 61.885,105.067 55.577,106.784C47.757,108.913 38.997,108.142 37.557,108.015Z" style="fill:rgb(1,1,1);fill-opacity:1;"/>
    </g>
    <g transform="matrix(1.057055,0,0,1.057055,-3.100651,-0.696134)">
        <path d="M567.903,97.119C563.954,92.938 562.272,88.675 561.717,87.407C558.673,80.449 559.065,71.627 559.411,69.487C560.328,63.815 560.168,63.757 562.377,58.446C563.776,55.081 566.38,51.575 567.423,50.429C576.41,40.558 586.322,40.247 591.502,40.207C602.049,40.126 609.413,45.391 612.107,47.911C613.398,49.119 620.808,56.051 622.295,67.531C623.175,74.325 622.639,74.675 622.138,75.001C621.34,75.522 621.235,75.274 576.5,75.356C567.472,75.373 566.712,75.192 566.221,76.344C565.582,77.845 566.38,84.219 571.096,90.778C579.935,103.073 598.298,103.848 608.438,97.398C613.541,94.152 613.111,92.88 614.527,92.82C616.098,92.754 617.888,95.798 617.908,96.478C617.998,99.512 608.019,105.455 601.544,106.725C600.598,106.911 595.957,107.821 589.512,107.321C576.9,106.344 569.909,99.166 567.903,97.119L567.93,61.666C565.51,68.522 565.697,69.892 568.471,69.967C573.25,70.095 609.693,69.942 612.499,70.032C612.738,70.04 614.822,70.107 615.427,69.435C616.642,68.086 613.956,61.191 613.173,59.657C610.975,55.348 606.886,51.236 603.53,49.449C602.562,48.934 597.882,45.836 589.488,46.206C584.478,46.427 581.095,48.019 580.421,48.337C576.245,50.303 574.288,52.381 573.851,52.845C569.411,57.559 568.503,60.536 567.93,61.666L567.903,97.119Z" style="fill:rgb(3,3,3);fill-opacity:1;"/>
    </g>
    <g transform="matrix(1.057055,0,0,1.057055,-3.100651,-0.696134)">
        <path d="M182.471,107.006C159.042,106.696 156.864,107.815 156.297,105.554C156.142,104.937 156.222,39.706 156.252,39.469C156.416,38.207 156.916,37.551 158.496,37.456C160.008,37.366 179.66,37.412 181.5,37.417C183.265,37.421 184.116,37.305 184.874,38.217C185.324,38.758 185.271,38.857 185.271,65.5C185.271,105.261 185.277,105.269 185.218,105.443C184.656,107.09 184.182,106.659 182.471,107.006Z" style="fill-opacity:1;"/>
    </g>
    <g transform="matrix(1.057055,0,0,1.057055,-3.100651,-0.696134)">
        <path d="M435.502,106.916C432.807,106.878 431.831,107.184 431.807,104.495C431.648,86.961 431.799,48.382 431.818,43.503C431.829,40.684 432.681,40.733 435.497,40.765C438.831,40.802 438.183,42.161 438.177,45.5C438.168,50.906 437.544,51.186 438.342,51.655C438.664,51.844 438.954,52.168 439.327,52.188C439.779,52.211 444.795,40.011 463.503,40.206C474.815,40.324 480.684,44.455 484.804,50.301C486.136,52.192 486.604,54.05 486.812,54.183C487.008,54.309 487.278,54.172 487.511,54.174C488.132,54.18 488.242,54.251 488.599,53.595C489.086,52.7 491.801,47.71 497.498,44.496C497.578,44.451 504.621,39.16 518.51,40.352C525.029,40.911 533.836,44.72 537.689,53.413C541.156,61.237 540.597,66.362 540.597,77.5C540.597,105.561 540.649,105.651 540.202,106.267C539.396,107.377 534.918,107.027 534.436,106.587C533.598,105.82 533.748,105.616 533.748,89.5C533.748,64.776 533.856,64.737 533.065,61.606C531.163,54.086 527.327,47.295 514.517,46.277C512.092,46.085 502.906,46.295 497.121,52.139C495.105,54.176 491.326,57.775 489.912,66.57C489.302,70.366 489.854,104.273 489.56,105.515C489.253,106.811 487.741,106.901 487.546,106.912C487.217,106.932 484.039,107.12 483.44,106.586C482.647,105.877 482.757,105.7 482.757,92.5C482.757,66.199 482.955,65.002 481.514,59.496C481.058,57.756 478.979,54.02 478.038,52.875C476.87,51.453 474.244,49.35 473.309,48.878C463.449,43.897 453.595,47.202 450.68,48.837C450.163,49.128 446.582,50.722 443.232,55.316C442.762,55.96 440.471,59.102 439.168,64.413C437.409,71.588 438.904,104.707 438.039,106.191C437.573,106.99 437.349,106.659 435.502,106.916Z" style="fill:rgb(2,2,2);fill-opacity:1;"/>
    </g>
    <g transform="matrix(1.057055,0,0,1.057055,-3.100651,-0.696134)">
        <path d="M389.448,50.096C391.374,49.879 391.361,49.87 391.528,49.862C404.217,49.24 413.034,58.934 413.462,68.501C413.748,74.901 413.062,78.761 409.148,84.23C407.145,87.028 400.535,92.435 391.455,91.929C383.647,91.495 379.173,87.456 378.774,87.155C376.443,85.4 372.366,79.97 371.81,74.457C370.184,58.329 380.253,51.152 389.448,50.096Z" style="fill:rgb(164,100,255);fill-opacity:1;"/>
    </g>
    <g transform="matrix(1.057055,0,0,1.057055,-3.100651,-0.696134)">
        <path d="M159.742,5.872C160.832,5.259 164.368,2.233 173.466,2.895C174.417,2.964 180.404,3.4 184.426,7.57C189.978,13.327 190.365,24.631 180.325,30.168C176.203,32.441 165.893,34.249 158.636,28.33C152.349,23.204 150.794,12.335 159.742,5.872Z" style="fill:rgb(1,1,1);fill-opacity:1;"/>
    </g>
</svg>
